<?xml version="1.0" encoding="UTF-8"?><svg xmlns="http://www.w3.org/2000/svg" xmlns:xlink="http://www.w3.org/1999/xlink" fill-opacity="1" color-rendering="auto" color-interpolation="auto" text-rendering="auto" stroke="black" stroke-linecap="square" width="315" stroke-miterlimit="10" shape-rendering="auto" stroke-opacity="1" fill="black" stroke-dasharray="none" font-weight="normal" stroke-width="1" height="272" font-family="'Dialog'" font-style="normal" stroke-linejoin="miter" font-size="12px" stroke-dashoffset="0" image-rendering="auto">
  <!--Generated by ySVG 2.5-->
  <defs id="genericDefs"/>
  <g>
    <defs id="defs1">
      <clipPath clipPathUnits="userSpaceOnUse" id="clipPath1">
        <path d="M0 0 L315 0 L315 272 L0 272 L0 0 Z"/>
      </clipPath>
      <clipPath clipPathUnits="userSpaceOnUse" id="clipPath2">
        <path d="M557 200 L872 200 L872 472 L557 472 L557 200 Z"/>
      </clipPath>
    </defs>
    <g fill="white" text-rendering="geometricPrecision" shape-rendering="geometricPrecision" transform="translate(-557,-200)" stroke="white">
      <rect x="557" width="315" height="272" y="200" clip-path="url(#clipPath2)" stroke="none"/>
    </g>
    <g fill="rgb(255,204,0)" text-rendering="geometricPrecision" shape-rendering="geometricPrecision" transform="matrix(1,0,0,1,-557,-200)" stroke="rgb(255,204,0)">
      <rect x="671.6494" y="215" clip-path="url(#clipPath2)" width="88.7012" rx="4" ry="4" height="30" stroke="none"/>
    </g>
    <g text-rendering="geometricPrecision" stroke-miterlimit="1.45" shape-rendering="geometricPrecision" transform="matrix(1,0,0,1,-557,-200)" stroke-linecap="butt">
      <rect x="671.6494" y="215" clip-path="url(#clipPath2)" fill="none" width="88.7012" rx="4" ry="4" height="30"/>
      <text x="678.6494" xml:space="preserve" y="234.1543" clip-path="url(#clipPath2)" font-family="sans-serif" stroke="none">MyRetail API</text>
    </g>
    <g fill="rgb(255,204,0)" text-rendering="geometricPrecision" shape-rendering="geometricPrecision" transform="matrix(1,0,0,1,-557,-200)" stroke="rgb(255,204,0)">
      <rect x="572.373" y="310" clip-path="url(#clipPath2)" width="99.2539" rx="4" ry="4" height="30" stroke="none"/>
    </g>
    <g text-rendering="geometricPrecision" stroke-miterlimit="1.45" shape-rendering="geometricPrecision" transform="matrix(1,0,0,1,-557,-200)" stroke-linecap="butt">
      <rect x="572.373" y="310" clip-path="url(#clipPath2)" fill="none" width="99.2539" rx="4" ry="4" height="30"/>
      <text x="579.373" xml:space="preserve" y="329.1543" clip-path="url(#clipPath2)" font-family="sans-serif" stroke="none">Product Name</text>
    </g>
    <g fill="rgb(255,204,0)" text-rendering="geometricPrecision" shape-rendering="geometricPrecision" transform="matrix(1,0,0,1,-557,-200)" stroke="rgb(255,204,0)">
      <rect x="763.332" y="310" clip-path="url(#clipPath2)" width="93.3359" rx="4" ry="4" height="30" stroke="none"/>
    </g>
    <g text-rendering="geometricPrecision" stroke-miterlimit="1.45" shape-rendering="geometricPrecision" transform="matrix(1,0,0,1,-557,-200)" stroke-linecap="butt">
      <rect x="763.332" y="310" clip-path="url(#clipPath2)" fill="none" width="93.3359" rx="4" ry="4" height="30"/>
      <text x="770.332" xml:space="preserve" y="329.1543" clip-path="url(#clipPath2)" font-family="sans-serif" stroke="none">Product Price</text>
    </g>
    <g fill="rgb(255,204,0)" text-rendering="geometricPrecision" shape-rendering="geometricPrecision" transform="matrix(1,0,0,1,-557,-200)" stroke="rgb(255,204,0)">
      <rect x="584.2266" y="427" clip-path="url(#clipPath2)" width="75.5469" rx="4" ry="4" height="30" stroke="none"/>
    </g>
    <g text-rendering="geometricPrecision" stroke-miterlimit="1.45" shape-rendering="geometricPrecision" transform="matrix(1,0,0,1,-557,-200)" stroke-linecap="butt">
      <rect x="584.2266" y="427" clip-path="url(#clipPath2)" fill="none" width="75.5469" rx="4" ry="4" height="30"/>
      <text x="591.2266" xml:space="preserve" y="446.1543" clip-path="url(#clipPath2)" font-family="sans-serif" stroke="none">Mongo DB</text>
    </g>
    <g fill="rgb(255,204,0)" text-rendering="geometricPrecision" shape-rendering="geometricPrecision" transform="matrix(1,0,0,1,-557,-200)" stroke="rgb(255,204,0)">
      <rect x="772.2266" y="427" clip-path="url(#clipPath2)" width="75.5469" rx="4" ry="4" height="30" stroke="none"/>
    </g>
    <g text-rendering="geometricPrecision" stroke-miterlimit="1.45" shape-rendering="geometricPrecision" transform="matrix(1,0,0,1,-557,-200)" stroke-linecap="butt">
      <rect x="772.2266" y="427" clip-path="url(#clipPath2)" fill="none" width="75.5469" rx="4" ry="4" height="30"/>
      <text x="779.2266" xml:space="preserve" y="446.1543" clip-path="url(#clipPath2)" font-family="sans-serif" stroke="none">Mongo DB</text>
      <path fill="none" d="M701.1519 245.0061 L642.4871 304.2949" clip-path="url(#clipPath2)"/>
      <path d="M636.8603 309.9816 L648.8547 304.9683 L643.1905 303.5841 L641.7463 297.9348 Z" clip-path="url(#clipPath2)" stroke="none"/>
      <path fill="none" d="M730.8481 245.0061 L789.5129 304.2949" clip-path="url(#clipPath2)"/>
      <path d="M795.1397 309.9816 L790.2537 297.9348 L788.8095 303.5841 L783.1453 304.9683 Z" clip-path="url(#clipPath2)" stroke="none"/>
      <path fill="none" d="M622 339.9963 L622 419.0082" clip-path="url(#clipPath2)"/>
      <path d="M622 427.0082 L627 415.0082 L622 418.0082 L617 415.0082 Z" clip-path="url(#clipPath2)" stroke="none"/>
      <path fill="none" d="M810 339.9963 L810 419.0082" clip-path="url(#clipPath2)"/>
      <path d="M810 427.0082 L815 415.0082 L810 418.0082 L805 415.0082 Z" clip-path="url(#clipPath2)" stroke="none"/>
    </g>
  </g>
</svg>
